<mxfile host="65bd71144e">
    <diagram id="wRmS2IjyODBXrbnOfcG8" name="第 1 页">
        <mxGraphModel dx="-434" dy="1453" grid="1" gridSize="10" guides="1" tooltips="1" connect="1" arrows="1" fold="1" page="1" pageScale="1" pageWidth="827" pageHeight="1169" math="0" shadow="0">
            <root>
                <mxCell id="0"/>
                <mxCell id="1" parent="0"/>
                <mxCell id="20" value="" style="whiteSpace=wrap;html=1;" parent="1" vertex="1">
                    <mxGeometry x="890" y="-660" width="500" height="411" as="geometry"/>
                </mxCell>
                <mxCell id="22" value="" style="whiteSpace=wrap;html=1;" parent="1" vertex="1">
                    <mxGeometry x="1390" y="-939" width="500" height="590" as="geometry"/>
                </mxCell>
                <mxCell id="24" value="" style="whiteSpace=wrap;html=1;" parent="1" vertex="1">
                    <mxGeometry x="1390" y="-349" width="500" height="100" as="geometry"/>
                </mxCell>
                <mxCell id="R05JFZQ_lQSTxtIyseEk-85" value="Call Stack" style="text;html=1;align=center;verticalAlign=middle;resizable=0;points=[];autosize=1;strokeColor=none;fillColor=none;fontSize=16;" parent="1" vertex="1">
                    <mxGeometry x="890" y="-279" width="100" height="30" as="geometry"/>
                </mxCell>
                <mxCell id="R05JFZQ_lQSTxtIyseEk-88" value="MacroTask Queue" style="text;html=1;align=center;verticalAlign=middle;resizable=0;points=[];autosize=1;strokeColor=none;fillColor=none;fontSize=16;" parent="1" vertex="1">
                    <mxGeometry x="1390" y="-379" width="150" height="30" as="geometry"/>
                </mxCell>
                <mxCell id="R05JFZQ_lQSTxtIyseEk-91" value="MicroTask Queue" style="text;html=1;align=center;verticalAlign=middle;resizable=0;points=[];autosize=1;strokeColor=none;fillColor=none;fontSize=16;" parent="1" vertex="1">
                    <mxGeometry x="1390" y="-279" width="150" height="30" as="geometry"/>
                </mxCell>
                <mxCell id="88" value="" style="group" parent="1" vertex="1" connectable="0">
                    <mxGeometry x="890" y="-930" width="500" height="35" as="geometry"/>
                </mxCell>
                <mxCell id="21" value="&lt;div style=&quot;font-family: Consolas, &amp;quot;Courier New&amp;quot;, monospace; font-weight: normal; font-size: 20px; line-height: 27px;&quot;&gt;&lt;div&gt;&lt;span style=&quot;&quot;&gt;console&lt;/span&gt;&lt;span style=&quot;&quot;&gt;.&lt;/span&gt;&lt;span style=&quot;&quot;&gt;log&lt;/span&gt;&lt;span style=&quot;&quot;&gt;(&lt;/span&gt;&lt;span style=&quot;&quot;&gt;&quot;start&quot;&lt;/span&gt;&lt;span style=&quot;&quot;&gt;);&lt;/span&gt;&lt;/div&gt;&lt;/div&gt;" style="text;whiteSpace=wrap;html=1;labelBackgroundColor=none;fontColor=default;verticalAlign=middle;" parent="88" vertex="1">
                    <mxGeometry x="57.95454545454546" width="442.04545454545456" height="35" as="geometry"/>
                </mxCell>
                <mxCell id="77" value="&lt;font style=&quot;font-size: 16px;&quot;&gt;2&lt;/font&gt;" style="rounded=1;whiteSpace=wrap;html=1;fontSize=26;fillColor=#1ba1e2;fontColor=#ffffff;strokeColor=#006EAF;arcSize=0;" parent="88" vertex="1">
                    <mxGeometry width="56.81818181818182" height="35" as="geometry"/>
                </mxCell>
                <mxCell id="89" value="" style="group" parent="1" vertex="1" connectable="0">
                    <mxGeometry x="890" y="-867" width="500" height="35" as="geometry"/>
                </mxCell>
                <mxCell id="90" value="&lt;div style=&quot;font-family: Consolas, &amp;quot;Courier New&amp;quot;, monospace; font-weight: normal; font-size: 20px; line-height: 27px;&quot;&gt;console.log(&quot;asyncFn start&quot;);&lt;br&gt;&lt;/div&gt;" style="text;whiteSpace=wrap;html=1;labelBackgroundColor=none;fontColor=default;verticalAlign=middle;" parent="89" vertex="1">
                    <mxGeometry x="57.95454545454546" width="442.04545454545456" height="35" as="geometry"/>
                </mxCell>
                <mxCell id="91" value="&lt;font style=&quot;font-size: 16px;&quot;&gt;3&lt;/font&gt;" style="rounded=1;whiteSpace=wrap;html=1;fontSize=26;fillColor=#1ba1e2;fontColor=#ffffff;strokeColor=#006EAF;arcSize=0;" parent="89" vertex="1">
                    <mxGeometry width="56.81818181818182" height="35" as="geometry"/>
                </mxCell>
                <mxCell id="98" value="" style="group" parent="1" vertex="1" connectable="0">
                    <mxGeometry x="890" y="-803" width="500" height="35" as="geometry"/>
                </mxCell>
                <mxCell id="93" value="&lt;div style=&quot;font-family: Consolas, &amp;quot;Courier New&amp;quot;, monospace; font-weight: normal; font-size: 20px; line-height: 27px;&quot;&gt;console.log(&quot;promiseFn&quot;);&lt;br&gt;&lt;/div&gt;" style="text;whiteSpace=wrap;html=1;labelBackgroundColor=none;fontColor=default;verticalAlign=middle;" parent="98" vertex="1">
                    <mxGeometry x="57.954545454545496" width="442.04545454545456" height="35" as="geometry"/>
                </mxCell>
                <mxCell id="94" value="&lt;font style=&quot;font-size: 16px;&quot;&gt;4&lt;/font&gt;" style="rounded=1;whiteSpace=wrap;html=1;fontSize=26;fillColor=#1ba1e2;fontColor=#ffffff;strokeColor=#006EAF;arcSize=0;" parent="98" vertex="1">
                    <mxGeometry width="56.81818181818182" height="35" as="geometry"/>
                </mxCell>
                <mxCell id="99" value="" style="group" parent="1" vertex="1" connectable="0">
                    <mxGeometry x="890" y="-740" width="500" height="35" as="geometry"/>
                </mxCell>
                <mxCell id="96" value="&lt;div style=&quot;font-family: Consolas, &amp;quot;Courier New&amp;quot;, monospace; font-weight: normal; font-size: 20px; line-height: 27px;&quot;&gt;console.log(&quot;end&quot;);&lt;br&gt;&lt;/div&gt;" style="text;whiteSpace=wrap;html=1;labelBackgroundColor=none;fontColor=default;verticalAlign=middle;" parent="99" vertex="1">
                    <mxGeometry x="57.954545454545496" width="442.04545454545456" height="35" as="geometry"/>
                </mxCell>
                <mxCell id="97" value="&lt;font style=&quot;font-size: 16px;&quot;&gt;6&lt;/font&gt;" style="rounded=1;whiteSpace=wrap;html=1;fontSize=26;fillColor=#1ba1e2;fontColor=#ffffff;strokeColor=#006EAF;arcSize=0;" parent="99" vertex="1">
                    <mxGeometry width="56.81818181818182" height="35" as="geometry"/>
                </mxCell>
                <mxCell id="100" value="" style="group" parent="1" vertex="1" connectable="0">
                    <mxGeometry x="1390" y="-349" width="500" height="35" as="geometry"/>
                </mxCell>
                <mxCell id="101" value="&lt;div style=&quot;font-family: Consolas, &amp;quot;Courier New&amp;quot;, monospace; font-weight: normal; font-size: 20px; line-height: 27px;&quot;&gt;console.log(&quot;asyncFn end&quot;);&lt;br&gt;&lt;/div&gt;" style="text;whiteSpace=wrap;html=1;labelBackgroundColor=none;fontColor=default;verticalAlign=middle;" parent="100" vertex="1">
                    <mxGeometry x="57.954545454545496" width="442.04545454545456" height="35" as="geometry"/>
                </mxCell>
                <mxCell id="102" value="&lt;font style=&quot;font-size: 16px;&quot;&gt;5&lt;/font&gt;" style="rounded=1;whiteSpace=wrap;html=1;fontSize=26;fillColor=#1ba1e2;fontColor=#ffffff;strokeColor=#006EAF;arcSize=0;" parent="100" vertex="1">
                    <mxGeometry width="56.81818181818182" height="35" as="geometry"/>
                </mxCell>
                <mxCell id="103" value="" style="group" parent="1" vertex="1" connectable="0">
                    <mxGeometry x="1390" y="-939" width="500" height="550" as="geometry"/>
                </mxCell>
                <mxCell id="104" value="&lt;div style=&quot;font-family: Consolas, &amp;quot;Courier New&amp;quot;, monospace; font-weight: normal; font-size: 20px; line-height: 27px;&quot;&gt;&lt;div&gt;()&amp;nbsp;=&amp;gt;&amp;nbsp;{&lt;/div&gt;&lt;div&gt;&amp;nbsp;&amp;nbsp;console.log(&quot;setTimeout start&quot;);&lt;/div&gt;&lt;div&gt;&amp;nbsp;&amp;nbsp;Promise.resolve()&lt;/div&gt;&lt;div&gt;&amp;nbsp; &amp;nbsp; .then(()&amp;nbsp;=&amp;gt;&amp;nbsp;{&lt;/div&gt;&lt;div&gt;&amp;nbsp; &amp;nbsp; &amp;nbsp;&amp;nbsp;console.log(&quot;promise resolve1&quot;);&lt;/div&gt;&lt;div&gt;&amp;nbsp; &amp;nbsp; })&lt;/div&gt;&lt;div&gt;&amp;nbsp; &amp;nbsp; .then(()&amp;nbsp;=&amp;gt;&amp;nbsp;{&lt;/div&gt;&lt;div&gt;&amp;nbsp; &amp;nbsp; &amp;nbsp;&amp;nbsp;console.log(&quot;promise resolve2&quot;);&lt;/div&gt;&lt;div&gt;&amp;nbsp; &amp;nbsp; })&lt;/div&gt;&lt;div&gt;&amp;nbsp;&amp;nbsp;new&amp;nbsp;Promise((resolve)&amp;nbsp;=&amp;gt;&amp;nbsp;{&lt;/div&gt;&lt;div&gt;&amp;nbsp; &amp;nbsp;&amp;nbsp;console.log(&quot;promise1 start&quot;);&lt;/div&gt;&lt;div&gt;&amp;nbsp; &amp;nbsp;&amp;nbsp;resolve();&lt;/div&gt;&lt;div&gt;&amp;nbsp; }).then(()&amp;nbsp;=&amp;gt;&amp;nbsp;{&lt;/div&gt;&lt;div&gt;&amp;nbsp; &amp;nbsp;&amp;nbsp;console.log(&quot;promise1 end&quot;);&lt;/div&gt;&lt;div&gt;&amp;nbsp; });&lt;/div&gt;&lt;div&gt;&amp;nbsp;&amp;nbsp;setTimeout(()&amp;nbsp;=&amp;gt;&amp;nbsp;{&lt;/div&gt;&lt;div&gt;&amp;nbsp; &amp;nbsp;&amp;nbsp;console.log(&quot;inner setTimeout&quot;);&lt;/div&gt;&lt;div&gt;&amp;nbsp; });&lt;/div&gt;&lt;div&gt;&amp;nbsp;&amp;nbsp;console.log(&quot;setTimeout end&quot;);&lt;/div&gt;&lt;div&gt;};&lt;/div&gt;&lt;/div&gt;" style="text;whiteSpace=wrap;html=1;labelBackgroundColor=none;fontColor=default;verticalAlign=middle;" parent="103" vertex="1">
                    <mxGeometry x="57.95" width="442.05" height="550" as="geometry"/>
                </mxCell>
                <mxCell id="105" value="&lt;font style=&quot;font-size: 16px;&quot;&gt;1&lt;/font&gt;" style="rounded=1;whiteSpace=wrap;html=1;fontSize=26;fillColor=#1ba1e2;fontColor=#ffffff;strokeColor=#006EAF;arcSize=0;" parent="103" vertex="1">
                    <mxGeometry width="56.81818181818182" height="35" as="geometry"/>
                </mxCell>
            </root>
        </mxGraphModel>
    </diagram>
    <diagram id="Bwf8LXZBNZVSDflvAC77" name="第 2 页">
        <mxGraphModel dx="1137" dy="1422" grid="1" gridSize="10" guides="1" tooltips="1" connect="1" arrows="1" fold="1" page="1" pageScale="1" pageWidth="827" pageHeight="1169" math="0" shadow="0">
            <root>
                <mxCell id="0"/>
                <mxCell id="1" parent="0"/>
                <mxCell id="pTrZJJD1_A4CPNRKxhhL-1" value="" style="whiteSpace=wrap;html=1;" vertex="1" parent="1">
                    <mxGeometry x="890" y="1110" width="500" height="601" as="geometry"/>
                </mxCell>
                <mxCell id="pTrZJJD1_A4CPNRKxhhL-2" value="" style="whiteSpace=wrap;html=1;" vertex="1" parent="1">
                    <mxGeometry x="1390" y="780" width="500" height="831" as="geometry"/>
                </mxCell>
                <mxCell id="pTrZJJD1_A4CPNRKxhhL-3" value="" style="whiteSpace=wrap;html=1;" vertex="1" parent="1">
                    <mxGeometry x="1390" y="1611" width="500" height="100" as="geometry"/>
                </mxCell>
                <mxCell id="pTrZJJD1_A4CPNRKxhhL-4" value="Call Stack" style="text;html=1;align=center;verticalAlign=middle;resizable=0;points=[];autosize=1;strokeColor=none;fillColor=none;fontSize=16;" vertex="1" parent="1">
                    <mxGeometry x="890" y="1671" width="100" height="30" as="geometry"/>
                </mxCell>
                <mxCell id="pTrZJJD1_A4CPNRKxhhL-5" value="MacroTask Queue" style="text;html=1;align=center;verticalAlign=middle;resizable=0;points=[];autosize=1;strokeColor=none;fillColor=none;fontSize=16;" vertex="1" parent="1">
                    <mxGeometry x="1390" y="1571" width="150" height="30" as="geometry"/>
                </mxCell>
                <mxCell id="pTrZJJD1_A4CPNRKxhhL-6" value="MicroTask Queue" style="text;html=1;align=center;verticalAlign=middle;resizable=0;points=[];autosize=1;strokeColor=none;fillColor=none;fontSize=16;" vertex="1" parent="1">
                    <mxGeometry x="1390" y="1671" width="150" height="30" as="geometry"/>
                </mxCell>
                <mxCell id="pTrZJJD1_A4CPNRKxhhL-7" value="" style="group" vertex="1" connectable="0" parent="1">
                    <mxGeometry x="890" y="790" width="500" height="35" as="geometry"/>
                </mxCell>
                <mxCell id="pTrZJJD1_A4CPNRKxhhL-8" value="&lt;div style=&quot;font-family: Consolas, &amp;quot;Courier New&amp;quot;, monospace; font-weight: normal; font-size: 20px; line-height: 27px;&quot;&gt;&lt;div&gt;&lt;span style=&quot;&quot;&gt;console&lt;/span&gt;&lt;span style=&quot;&quot;&gt;.&lt;/span&gt;&lt;span style=&quot;&quot;&gt;log&lt;/span&gt;&lt;span style=&quot;&quot;&gt;(&lt;/span&gt;&lt;span style=&quot;&quot;&gt;&quot;start&quot;&lt;/span&gt;&lt;span style=&quot;&quot;&gt;);&lt;/span&gt;&lt;/div&gt;&lt;/div&gt;" style="text;whiteSpace=wrap;html=1;labelBackgroundColor=none;fontColor=default;verticalAlign=middle;" vertex="1" parent="pTrZJJD1_A4CPNRKxhhL-7">
                    <mxGeometry x="57.95454545454546" width="442.04545454545456" height="35" as="geometry"/>
                </mxCell>
                <mxCell id="pTrZJJD1_A4CPNRKxhhL-9" value="&lt;font style=&quot;font-size: 16px;&quot;&gt;2&lt;/font&gt;" style="rounded=1;whiteSpace=wrap;html=1;fontSize=26;fillColor=#1ba1e2;fontColor=#ffffff;strokeColor=#006EAF;arcSize=0;" vertex="1" parent="pTrZJJD1_A4CPNRKxhhL-7">
                    <mxGeometry width="56.81818181818182" height="35" as="geometry"/>
                </mxCell>
                <mxCell id="pTrZJJD1_A4CPNRKxhhL-10" value="" style="group" vertex="1" connectable="0" parent="1">
                    <mxGeometry x="890" y="853" width="500" height="35" as="geometry"/>
                </mxCell>
                <mxCell id="pTrZJJD1_A4CPNRKxhhL-11" value="&lt;div style=&quot;font-family: Consolas, &amp;quot;Courier New&amp;quot;, monospace; font-weight: normal; font-size: 20px; line-height: 27px;&quot;&gt;console.log(&quot;asyncFn start&quot;);&lt;br&gt;&lt;/div&gt;" style="text;whiteSpace=wrap;html=1;labelBackgroundColor=none;fontColor=default;verticalAlign=middle;" vertex="1" parent="pTrZJJD1_A4CPNRKxhhL-10">
                    <mxGeometry x="57.95454545454546" width="442.04545454545456" height="35" as="geometry"/>
                </mxCell>
                <mxCell id="pTrZJJD1_A4CPNRKxhhL-12" value="&lt;font style=&quot;font-size: 16px;&quot;&gt;3&lt;/font&gt;" style="rounded=1;whiteSpace=wrap;html=1;fontSize=26;fillColor=#1ba1e2;fontColor=#ffffff;strokeColor=#006EAF;arcSize=0;" vertex="1" parent="pTrZJJD1_A4CPNRKxhhL-10">
                    <mxGeometry width="56.81818181818182" height="35" as="geometry"/>
                </mxCell>
                <mxCell id="pTrZJJD1_A4CPNRKxhhL-13" value="" style="group" vertex="1" connectable="0" parent="1">
                    <mxGeometry x="890" y="917" width="500" height="35" as="geometry"/>
                </mxCell>
                <mxCell id="pTrZJJD1_A4CPNRKxhhL-14" value="&lt;div style=&quot;font-family: Consolas, &amp;quot;Courier New&amp;quot;, monospace; font-weight: normal; font-size: 20px; line-height: 27px;&quot;&gt;console.log(&quot;promiseFn&quot;);&lt;br&gt;&lt;/div&gt;" style="text;whiteSpace=wrap;html=1;labelBackgroundColor=none;fontColor=default;verticalAlign=middle;" vertex="1" parent="pTrZJJD1_A4CPNRKxhhL-13">
                    <mxGeometry x="57.954545454545496" width="442.04545454545456" height="35" as="geometry"/>
                </mxCell>
                <mxCell id="pTrZJJD1_A4CPNRKxhhL-15" value="&lt;font style=&quot;font-size: 16px;&quot;&gt;4&lt;/font&gt;" style="rounded=1;whiteSpace=wrap;html=1;fontSize=26;fillColor=#1ba1e2;fontColor=#ffffff;strokeColor=#006EAF;arcSize=0;" vertex="1" parent="pTrZJJD1_A4CPNRKxhhL-13">
                    <mxGeometry y="-2" width="56.81818181818182" height="35" as="geometry"/>
                </mxCell>
                <mxCell id="pTrZJJD1_A4CPNRKxhhL-16" value="" style="group" vertex="1" connectable="0" parent="1">
                    <mxGeometry x="890" y="980" width="500" height="35" as="geometry"/>
                </mxCell>
                <mxCell id="pTrZJJD1_A4CPNRKxhhL-17" value="&lt;div style=&quot;font-family: Consolas, &amp;quot;Courier New&amp;quot;, monospace; font-weight: normal; font-size: 20px; line-height: 27px;&quot;&gt;console.log(&quot;end&quot;);&lt;br&gt;&lt;/div&gt;" style="text;whiteSpace=wrap;html=1;labelBackgroundColor=none;fontColor=default;verticalAlign=middle;" vertex="1" parent="pTrZJJD1_A4CPNRKxhhL-16">
                    <mxGeometry x="57.954545454545496" width="442.04545454545456" height="35" as="geometry"/>
                </mxCell>
                <mxCell id="pTrZJJD1_A4CPNRKxhhL-18" value="&lt;font style=&quot;font-size: 16px;&quot;&gt;6&lt;/font&gt;" style="rounded=1;whiteSpace=wrap;html=1;fontSize=26;fillColor=#1ba1e2;fontColor=#ffffff;strokeColor=#006EAF;arcSize=0;" vertex="1" parent="pTrZJJD1_A4CPNRKxhhL-16">
                    <mxGeometry y="-2" width="56.81818181818182" height="35" as="geometry"/>
                </mxCell>
                <mxCell id="pTrZJJD1_A4CPNRKxhhL-19" value="" style="group" vertex="1" connectable="0" parent="1">
                    <mxGeometry x="890" y="1040" width="500" height="35" as="geometry"/>
                </mxCell>
                <mxCell id="pTrZJJD1_A4CPNRKxhhL-20" value="&lt;div style=&quot;font-family: Consolas, &amp;quot;Courier New&amp;quot;, monospace; font-weight: normal; font-size: 20px; line-height: 27px;&quot;&gt;console.log(&quot;asyncFn end&quot;);&lt;br&gt;&lt;/div&gt;" style="text;whiteSpace=wrap;html=1;labelBackgroundColor=none;fontColor=default;verticalAlign=middle;" vertex="1" parent="pTrZJJD1_A4CPNRKxhhL-19">
                    <mxGeometry x="57.954545454545496" width="442.04545454545456" height="35" as="geometry"/>
                </mxCell>
                <mxCell id="pTrZJJD1_A4CPNRKxhhL-21" value="&lt;font style=&quot;font-size: 16px;&quot;&gt;7&lt;/font&gt;" style="rounded=1;whiteSpace=wrap;html=1;fontSize=26;fillColor=#1ba1e2;fontColor=#ffffff;strokeColor=#006EAF;arcSize=0;" vertex="1" parent="pTrZJJD1_A4CPNRKxhhL-19">
                    <mxGeometry width="56.81818181818182" height="35" as="geometry"/>
                </mxCell>
                <mxCell id="pTrZJJD1_A4CPNRKxhhL-22" value="" style="group" vertex="1" connectable="0" parent="1">
                    <mxGeometry x="890" y="1110" width="500" height="550" as="geometry"/>
                </mxCell>
                <mxCell id="pTrZJJD1_A4CPNRKxhhL-23" value="&lt;div style=&quot;font-family: Consolas, &amp;quot;Courier New&amp;quot;, monospace; font-weight: normal; font-size: 20px; line-height: 27px;&quot;&gt;&lt;div&gt;()&amp;nbsp;=&amp;gt;&amp;nbsp;{&lt;/div&gt;&lt;div&gt;&amp;nbsp;&amp;nbsp;console.log(&quot;setTimeout start&quot;);&lt;/div&gt;&lt;div&gt;&amp;nbsp;&amp;nbsp;Promise.resolve()&lt;/div&gt;&lt;div&gt;&amp;nbsp; &amp;nbsp; .then(()&amp;nbsp;=&amp;gt;&amp;nbsp;{&lt;/div&gt;&lt;div&gt;&amp;nbsp; &amp;nbsp; &amp;nbsp;&amp;nbsp;console.log(&quot;promise resolve1&quot;);&lt;/div&gt;&lt;div&gt;&amp;nbsp; &amp;nbsp; })&lt;/div&gt;&lt;div&gt;&amp;nbsp; &amp;nbsp; .then(()&amp;nbsp;=&amp;gt;&amp;nbsp;{&lt;/div&gt;&lt;div&gt;&amp;nbsp; &amp;nbsp; &amp;nbsp;&amp;nbsp;console.log(&quot;promise resolve2&quot;);&lt;/div&gt;&lt;div&gt;&amp;nbsp; &amp;nbsp; })&lt;/div&gt;&lt;div&gt;&amp;nbsp;&amp;nbsp;new&amp;nbsp;Promise((resolve)&amp;nbsp;=&amp;gt;&amp;nbsp;{&lt;/div&gt;&lt;div&gt;&amp;nbsp; &amp;nbsp;&amp;nbsp;console.log(&quot;promise1 start&quot;);&lt;/div&gt;&lt;div&gt;&amp;nbsp; &amp;nbsp;&amp;nbsp;resolve();&lt;/div&gt;&lt;div&gt;&amp;nbsp; }).then(()&amp;nbsp;=&amp;gt;&amp;nbsp;{&lt;/div&gt;&lt;div&gt;&amp;nbsp; &amp;nbsp;&amp;nbsp;console.log(&quot;promise1 end&quot;);&lt;/div&gt;&lt;div&gt;&amp;nbsp; });&lt;/div&gt;&lt;div&gt;&amp;nbsp;&amp;nbsp;setTimeout(()&amp;nbsp;=&amp;gt;&amp;nbsp;{&lt;/div&gt;&lt;div&gt;&amp;nbsp; &amp;nbsp;&amp;nbsp;console.log(&quot;inner setTimeout&quot;);&lt;/div&gt;&lt;div&gt;&amp;nbsp; });&lt;/div&gt;&lt;div&gt;&amp;nbsp;&amp;nbsp;console.log(&quot;setTimeout end&quot;);&lt;/div&gt;&lt;div&gt;};&lt;/div&gt;&lt;/div&gt;" style="text;whiteSpace=wrap;html=1;labelBackgroundColor=none;fontColor=default;verticalAlign=middle;" vertex="1" parent="pTrZJJD1_A4CPNRKxhhL-22">
                    <mxGeometry x="57.95" width="442.05" height="550" as="geometry"/>
                </mxCell>
                <mxCell id="pTrZJJD1_A4CPNRKxhhL-24" value="&lt;font style=&quot;font-size: 16px;&quot;&gt;8&lt;/font&gt;" style="rounded=1;whiteSpace=wrap;html=1;fontSize=26;fillColor=#1ba1e2;fontColor=#ffffff;strokeColor=#006EAF;arcSize=0;" vertex="1" parent="pTrZJJD1_A4CPNRKxhhL-22">
                    <mxGeometry width="56.81818181818182" height="35" as="geometry"/>
                </mxCell>
            </root>
        </mxGraphModel>
    </diagram>
    <diagram id="wTtWF6bcMc428d7PFiEK" name="第 3 页">
        <mxGraphModel dx="-1093" dy="406" grid="1" gridSize="10" guides="1" tooltips="1" connect="1" arrows="1" fold="1" page="1" pageScale="1" pageWidth="827" pageHeight="1169" math="0" shadow="0">
            <root>
                <mxCell id="0"/>
                <mxCell id="1" parent="0"/>
                <mxCell id="zyhJ_NDobpymHsizlz4o-1" value="" style="whiteSpace=wrap;html=1;" vertex="1" parent="1">
                    <mxGeometry x="2030" y="1660" width="500" height="51" as="geometry"/>
                </mxCell>
                <mxCell id="zyhJ_NDobpymHsizlz4o-2" value="" style="whiteSpace=wrap;html=1;" vertex="1" parent="1">
                    <mxGeometry x="2530" y="1162" width="500" height="169" as="geometry"/>
                </mxCell>
                <mxCell id="zyhJ_NDobpymHsizlz4o-3" value="" style="whiteSpace=wrap;html=1;" vertex="1" parent="1">
                    <mxGeometry x="2530" y="1330" width="500" height="381" as="geometry"/>
                </mxCell>
                <mxCell id="zyhJ_NDobpymHsizlz4o-4" value="Call Stack" style="text;html=1;align=center;verticalAlign=middle;resizable=0;points=[];autosize=1;strokeColor=none;fillColor=none;fontSize=16;" vertex="1" parent="1">
                    <mxGeometry x="2030" y="1671" width="100" height="30" as="geometry"/>
                </mxCell>
                <mxCell id="zyhJ_NDobpymHsizlz4o-5" value="MacroTask Queue" style="text;html=1;align=center;verticalAlign=middle;resizable=0;points=[];autosize=1;strokeColor=none;fillColor=none;fontSize=16;" vertex="1" parent="1">
                    <mxGeometry x="2530" y="1291" width="150" height="30" as="geometry"/>
                </mxCell>
                <mxCell id="zyhJ_NDobpymHsizlz4o-6" value="MicroTask Queue" style="text;html=1;align=center;verticalAlign=middle;resizable=0;points=[];autosize=1;strokeColor=none;fillColor=none;fontSize=16;" vertex="1" parent="1">
                    <mxGeometry x="2530" y="1671" width="150" height="30" as="geometry"/>
                </mxCell>
                <mxCell id="zyhJ_NDobpymHsizlz4o-7" value="" style="group" vertex="1" connectable="0" parent="1">
                    <mxGeometry x="2030" y="1183" width="500" height="35" as="geometry"/>
                </mxCell>
                <mxCell id="zyhJ_NDobpymHsizlz4o-8" value="&lt;div style=&quot;font-family: Consolas, &amp;quot;Courier New&amp;quot;, monospace; font-weight: normal; font-size: 20px; line-height: 27px;&quot;&gt;&lt;div&gt;&lt;span style=&quot;&quot;&gt;console&lt;/span&gt;&lt;span style=&quot;&quot;&gt;.&lt;/span&gt;&lt;span style=&quot;&quot;&gt;log&lt;/span&gt;&lt;span style=&quot;&quot;&gt;(&lt;/span&gt;&lt;span style=&quot;&quot;&gt;&quot;start&quot;&lt;/span&gt;&lt;span style=&quot;&quot;&gt;);&lt;/span&gt;&lt;/div&gt;&lt;/div&gt;" style="text;whiteSpace=wrap;html=1;labelBackgroundColor=none;fontColor=default;verticalAlign=middle;" vertex="1" parent="zyhJ_NDobpymHsizlz4o-7">
                    <mxGeometry x="57.95454545454546" width="442.04545454545456" height="35" as="geometry"/>
                </mxCell>
                <mxCell id="zyhJ_NDobpymHsizlz4o-9" value="&lt;font style=&quot;font-size: 16px;&quot;&gt;2&lt;/font&gt;" style="rounded=1;whiteSpace=wrap;html=1;fontSize=26;fillColor=#1ba1e2;fontColor=#ffffff;strokeColor=#006EAF;arcSize=0;" vertex="1" parent="zyhJ_NDobpymHsizlz4o-7">
                    <mxGeometry y="1" width="56.81818181818182" height="35" as="geometry"/>
                </mxCell>
                <mxCell id="zyhJ_NDobpymHsizlz4o-10" value="" style="group" vertex="1" connectable="0" parent="1">
                    <mxGeometry x="2030" y="1242" width="500" height="35" as="geometry"/>
                </mxCell>
                <mxCell id="zyhJ_NDobpymHsizlz4o-11" value="&lt;div style=&quot;font-family: Consolas, &amp;quot;Courier New&amp;quot;, monospace; font-weight: normal; font-size: 20px; line-height: 27px;&quot;&gt;console.log(&quot;asyncFn start&quot;);&lt;br&gt;&lt;/div&gt;" style="text;whiteSpace=wrap;html=1;labelBackgroundColor=none;fontColor=default;verticalAlign=middle;" vertex="1" parent="zyhJ_NDobpymHsizlz4o-10">
                    <mxGeometry x="57.95454545454546" width="442.04545454545456" height="35" as="geometry"/>
                </mxCell>
                <mxCell id="zyhJ_NDobpymHsizlz4o-12" value="&lt;font style=&quot;font-size: 16px;&quot;&gt;3&lt;/font&gt;" style="rounded=1;whiteSpace=wrap;html=1;fontSize=26;fillColor=#1ba1e2;fontColor=#ffffff;strokeColor=#006EAF;arcSize=0;" vertex="1" parent="zyhJ_NDobpymHsizlz4o-10">
                    <mxGeometry y="1" width="56.81818181818182" height="35" as="geometry"/>
                </mxCell>
                <mxCell id="zyhJ_NDobpymHsizlz4o-13" value="" style="group" vertex="1" connectable="0" parent="1">
                    <mxGeometry x="2030" y="1302" width="500" height="35" as="geometry"/>
                </mxCell>
                <mxCell id="zyhJ_NDobpymHsizlz4o-14" value="&lt;div style=&quot;font-family: Consolas, &amp;quot;Courier New&amp;quot;, monospace; font-weight: normal; font-size: 20px; line-height: 27px;&quot;&gt;console.log(&quot;promiseFn&quot;);&lt;br&gt;&lt;/div&gt;" style="text;whiteSpace=wrap;html=1;labelBackgroundColor=none;fontColor=default;verticalAlign=middle;" vertex="1" parent="zyhJ_NDobpymHsizlz4o-13">
                    <mxGeometry x="57.954545454545496" width="442.04545454545456" height="35" as="geometry"/>
                </mxCell>
                <mxCell id="zyhJ_NDobpymHsizlz4o-15" value="&lt;font style=&quot;font-size: 16px;&quot;&gt;4&lt;/font&gt;" style="rounded=1;whiteSpace=wrap;html=1;fontSize=26;fillColor=#1ba1e2;fontColor=#ffffff;strokeColor=#006EAF;arcSize=0;" vertex="1" parent="zyhJ_NDobpymHsizlz4o-13">
                    <mxGeometry y="-1" width="56.81818181818182" height="35" as="geometry"/>
                </mxCell>
                <mxCell id="zyhJ_NDobpymHsizlz4o-16" value="" style="group" vertex="1" connectable="0" parent="1">
                    <mxGeometry x="2030" y="1362" width="500" height="35" as="geometry"/>
                </mxCell>
                <mxCell id="zyhJ_NDobpymHsizlz4o-17" value="&lt;div style=&quot;font-family: Consolas, &amp;quot;Courier New&amp;quot;, monospace; font-weight: normal; font-size: 20px; line-height: 27px;&quot;&gt;console.log(&quot;end&quot;);&lt;br&gt;&lt;/div&gt;" style="text;whiteSpace=wrap;html=1;labelBackgroundColor=none;fontColor=default;verticalAlign=middle;" vertex="1" parent="zyhJ_NDobpymHsizlz4o-16">
                    <mxGeometry x="57.954545454545496" width="442.04545454545456" height="35" as="geometry"/>
                </mxCell>
                <mxCell id="zyhJ_NDobpymHsizlz4o-18" value="&lt;font style=&quot;font-size: 16px;&quot;&gt;6&lt;/font&gt;" style="rounded=1;whiteSpace=wrap;html=1;fontSize=26;fillColor=#1ba1e2;fontColor=#ffffff;strokeColor=#006EAF;arcSize=0;" vertex="1" parent="zyhJ_NDobpymHsizlz4o-16">
                    <mxGeometry y="-1" width="56.81818181818182" height="35" as="geometry"/>
                </mxCell>
                <mxCell id="zyhJ_NDobpymHsizlz4o-19" value="" style="group" vertex="1" connectable="0" parent="1">
                    <mxGeometry x="2030" y="1422" width="500" height="35" as="geometry"/>
                </mxCell>
                <mxCell id="zyhJ_NDobpymHsizlz4o-20" value="&lt;div style=&quot;font-family: Consolas, &amp;quot;Courier New&amp;quot;, monospace; font-weight: normal; font-size: 20px; line-height: 27px;&quot;&gt;console.log(&quot;asyncFn end&quot;);&lt;br&gt;&lt;/div&gt;" style="text;whiteSpace=wrap;html=1;labelBackgroundColor=none;fontColor=default;verticalAlign=middle;" vertex="1" parent="zyhJ_NDobpymHsizlz4o-19">
                    <mxGeometry x="57.954545454545496" width="442.04545454545456" height="35" as="geometry"/>
                </mxCell>
                <mxCell id="zyhJ_NDobpymHsizlz4o-21" value="&lt;font style=&quot;font-size: 16px;&quot;&gt;7&lt;/font&gt;" style="rounded=1;whiteSpace=wrap;html=1;fontSize=26;fillColor=#1ba1e2;fontColor=#ffffff;strokeColor=#006EAF;arcSize=0;" vertex="1" parent="zyhJ_NDobpymHsizlz4o-19">
                    <mxGeometry y="1" width="56.81818181818182" height="35" as="geometry"/>
                </mxCell>
                <mxCell id="zyhJ_NDobpymHsizlz4o-28" value="" style="group" vertex="1" connectable="0" parent="1">
                    <mxGeometry x="2030" y="1482" width="500" height="35" as="geometry"/>
                </mxCell>
                <mxCell id="zyhJ_NDobpymHsizlz4o-29" value="&lt;div style=&quot;font-family: Consolas, &amp;quot;Courier New&amp;quot;, monospace; font-weight: normal; font-size: 20px; line-height: 27px;&quot;&gt;console.log(&quot;setTimeout start&quot;);&lt;br&gt;&lt;/div&gt;" style="text;whiteSpace=wrap;html=1;labelBackgroundColor=none;fontColor=default;verticalAlign=middle;" vertex="1" parent="zyhJ_NDobpymHsizlz4o-28">
                    <mxGeometry x="57.954545454545496" width="442.04545454545456" height="35" as="geometry"/>
                </mxCell>
                <mxCell id="zyhJ_NDobpymHsizlz4o-30" value="&lt;font style=&quot;font-size: 16px;&quot;&gt;9&lt;/font&gt;" style="rounded=1;whiteSpace=wrap;html=1;fontSize=26;fillColor=#1ba1e2;fontColor=#ffffff;strokeColor=#006EAF;arcSize=0;" vertex="1" parent="zyhJ_NDobpymHsizlz4o-28">
                    <mxGeometry y="1" width="56.81818181818182" height="35" as="geometry"/>
                </mxCell>
                <mxCell id="zyhJ_NDobpymHsizlz4o-31" value="" style="group" vertex="1" connectable="0" parent="1">
                    <mxGeometry x="2030" y="1542" width="500" height="35" as="geometry"/>
                </mxCell>
                <mxCell id="zyhJ_NDobpymHsizlz4o-32" value="&lt;div style=&quot;font-family: Consolas, &amp;quot;Courier New&amp;quot;, monospace; font-weight: normal; font-size: 20px; line-height: 27px;&quot;&gt;console.log(&quot;promise1 start&quot;);&lt;br&gt;&lt;/div&gt;" style="text;whiteSpace=wrap;html=1;labelBackgroundColor=none;fontColor=default;verticalAlign=middle;" vertex="1" parent="zyhJ_NDobpymHsizlz4o-31">
                    <mxGeometry x="57.954545454545496" width="442.04545454545456" height="35" as="geometry"/>
                </mxCell>
                <mxCell id="zyhJ_NDobpymHsizlz4o-33" value="&lt;font style=&quot;font-size: 16px;&quot;&gt;11&lt;/font&gt;" style="rounded=1;whiteSpace=wrap;html=1;fontSize=26;fillColor=#1ba1e2;fontColor=#ffffff;strokeColor=#006EAF;arcSize=0;" vertex="1" parent="zyhJ_NDobpymHsizlz4o-31">
                    <mxGeometry y="1" width="56.81818181818182" height="35" as="geometry"/>
                </mxCell>
                <mxCell id="zyhJ_NDobpymHsizlz4o-34" value="" style="group" vertex="1" connectable="0" parent="1">
                    <mxGeometry x="2030" y="1603" width="500" height="35" as="geometry"/>
                </mxCell>
                <mxCell id="zyhJ_NDobpymHsizlz4o-35" value="&lt;div style=&quot;font-family: Consolas, &amp;quot;Courier New&amp;quot;, monospace; font-weight: normal; font-size: 20px; line-height: 27px;&quot;&gt;console.log(&quot;setTimeout end&quot;);&lt;br&gt;&lt;/div&gt;" style="text;whiteSpace=wrap;html=1;labelBackgroundColor=none;fontColor=default;verticalAlign=middle;" vertex="1" parent="zyhJ_NDobpymHsizlz4o-34">
                    <mxGeometry x="57.954545454545496" width="442.04545454545456" height="35" as="geometry"/>
                </mxCell>
                <mxCell id="zyhJ_NDobpymHsizlz4o-36" value="&lt;font style=&quot;font-size: 16px;&quot;&gt;14&lt;/font&gt;" style="rounded=1;whiteSpace=wrap;html=1;fontSize=26;fillColor=#1ba1e2;fontColor=#ffffff;strokeColor=#006EAF;arcSize=0;" vertex="1" parent="zyhJ_NDobpymHsizlz4o-34">
                    <mxGeometry y="1" width="56.81818181818182" height="35" as="geometry"/>
                </mxCell>
                <mxCell id="zyhJ_NDobpymHsizlz4o-37" value="" style="group" vertex="1" connectable="0" parent="1">
                    <mxGeometry x="2530" y="1162" width="500" height="90" as="geometry"/>
                </mxCell>
                <mxCell id="zyhJ_NDobpymHsizlz4o-38" value="&lt;div style=&quot;font-family: Consolas, &amp;quot;Courier New&amp;quot;, monospace; font-weight: normal; font-size: 20px; line-height: 27px;&quot;&gt;&lt;div&gt;()&amp;nbsp;=&amp;gt;&amp;nbsp;{&lt;/div&gt;&lt;div&gt;&amp;nbsp; &amp;nbsp;&amp;nbsp;console.log(&quot;inner setTimeout&quot;);&lt;/div&gt;&lt;div&gt;};&lt;/div&gt;&lt;/div&gt;" style="text;whiteSpace=wrap;html=1;labelBackgroundColor=none;fontColor=default;verticalAlign=middle;" vertex="1" parent="zyhJ_NDobpymHsizlz4o-37">
                    <mxGeometry x="57.95" width="442.05" height="90" as="geometry"/>
                </mxCell>
                <mxCell id="zyhJ_NDobpymHsizlz4o-39" value="&lt;font style=&quot;font-size: 16px;&quot;&gt;12&lt;/font&gt;" style="rounded=1;whiteSpace=wrap;html=1;fontSize=26;fillColor=#1ba1e2;fontColor=#ffffff;strokeColor=#006EAF;arcSize=0;" vertex="1" parent="zyhJ_NDobpymHsizlz4o-37">
                    <mxGeometry width="56.81818181818182" height="35" as="geometry"/>
                </mxCell>
                <mxCell id="zyhJ_NDobpymHsizlz4o-40" value="" style="group" vertex="1" connectable="0" parent="1">
                    <mxGeometry x="2530" y="1330" width="500" height="180" as="geometry"/>
                </mxCell>
                <mxCell id="zyhJ_NDobpymHsizlz4o-41" value="&lt;div style=&quot;font-family: Consolas, &amp;quot;Courier New&amp;quot;, monospace; font-weight: normal; font-size: 20px; line-height: 27px;&quot;&gt;&lt;div&gt;.then(()&amp;nbsp;=&amp;gt;&amp;nbsp;{&lt;/div&gt;&lt;div&gt;&lt;span style=&quot;&quot;&gt;&#9;&lt;/span&gt;console.log(&quot;promise resolve1&quot;);&lt;/div&gt;&lt;div&gt;})&lt;/div&gt;&lt;div&gt;.then(()&amp;nbsp;=&amp;gt;&amp;nbsp;{&lt;/div&gt;&lt;div&gt;&lt;span style=&quot;&quot;&gt;&#9;&lt;/span&gt;console.log(&quot;promise resolve2&quot;);&lt;/div&gt;&lt;div&gt;})&lt;/div&gt;&lt;/div&gt;" style="text;whiteSpace=wrap;html=1;labelBackgroundColor=none;fontColor=default;verticalAlign=middle;" vertex="1" parent="zyhJ_NDobpymHsizlz4o-40">
                    <mxGeometry x="57.95" width="442.05" height="180" as="geometry"/>
                </mxCell>
                <mxCell id="zyhJ_NDobpymHsizlz4o-42" value="&lt;font style=&quot;font-size: 16px;&quot;&gt;10&lt;/font&gt;" style="rounded=1;whiteSpace=wrap;html=1;fontSize=26;fillColor=#1ba1e2;fontColor=#ffffff;strokeColor=#006EAF;arcSize=0;" vertex="1" parent="zyhJ_NDobpymHsizlz4o-40">
                    <mxGeometry width="56.81818181818182" height="35" as="geometry"/>
                </mxCell>
                <mxCell id="zyhJ_NDobpymHsizlz4o-43" value="" style="group" vertex="1" connectable="0" parent="1">
                    <mxGeometry x="2530" y="1547" width="500" height="90" as="geometry"/>
                </mxCell>
                <mxCell id="zyhJ_NDobpymHsizlz4o-44" value="&lt;div style=&quot;font-family: Consolas, &amp;quot;Courier New&amp;quot;, monospace; font-weight: normal; font-size: 20px; line-height: 27px;&quot;&gt;&lt;div&gt;.then(()&amp;nbsp;=&amp;gt;&amp;nbsp;{&lt;/div&gt;&lt;div&gt;&lt;span style=&quot;&quot;&gt;&#9;&lt;/span&gt;console.log(&quot;promise1 end&quot;);&lt;/div&gt;&lt;div&gt;});&lt;/div&gt;&lt;/div&gt;" style="text;whiteSpace=wrap;html=1;labelBackgroundColor=none;fontColor=default;verticalAlign=middle;" vertex="1" parent="zyhJ_NDobpymHsizlz4o-43">
                    <mxGeometry x="57.95" width="442.05" height="90" as="geometry"/>
                </mxCell>
                <mxCell id="zyhJ_NDobpymHsizlz4o-45" value="&lt;font style=&quot;font-size: 16px;&quot;&gt;13&lt;/font&gt;" style="rounded=1;whiteSpace=wrap;html=1;fontSize=26;fillColor=#1ba1e2;fontColor=#ffffff;strokeColor=#006EAF;arcSize=0;" vertex="1" parent="zyhJ_NDobpymHsizlz4o-43">
                    <mxGeometry width="56.81818181818182" height="35" as="geometry"/>
                </mxCell>
            </root>
        </mxGraphModel>
    </diagram>
</mxfile>